<?xml version="1.0" encoding="utf-8"?>
<!-- Generator: Adobe Illustrator 26.4.1, SVG Export Plug-In . SVG Version: 6.00 Build 0)  -->
<svg version="1.1" id="Layer_1" xmlns="http://www.w3.org/2000/svg" xmlns:xlink="http://www.w3.org/1999/xlink" x="0px" y="0px"
	 viewBox="0 0 60 58.98" style="enable-background:new 0 0 60 58.98;" xml:space="preserve">
<style type="text/css">
	.st0{fill:#ED1C24;}
	.st1{fill:#F8B673;}
	.st2{fill:#2F3895;}
	.st3{fill:#3C55A5;}
	.st4{fill:#EF3E6F;}
	.st5{fill:#F58A29;}
	.st6{fill:#282C71;}
	.st7{fill:none;stroke:#FFFFFF;stroke-width:1.2494;stroke-miterlimit:10;}
	.st8{fill:none;stroke:#EF3E6F;stroke-width:1.4993;stroke-linecap:round;stroke-linejoin:round;stroke-miterlimit:10;}
	.st9{fill:none;stroke:#EF3E6F;stroke-width:1.4993;stroke-miterlimit:10;}
	.st10{fill:#FED413;}
	.st11{fill:#FFFFFF;}
	.st12{fill:none;stroke:#EF3E6F;stroke-width:1.999;stroke-miterlimit:10;}
	.st13{fill:none;stroke:#2F3895;stroke-width:1.2494;stroke-linecap:round;stroke-linejoin:round;stroke-miterlimit:10;}
	.st14{fill:none;stroke:#3C55A5;stroke-width:1.2494;stroke-linecap:round;stroke-linejoin:round;stroke-miterlimit:10;}
	.st15{fill:none;stroke:#3C55A5;stroke-width:1.2494;stroke-miterlimit:10;}
	.st16{fill:#EF4136;}
	.st17{fill:#F3F3F3;}
</style>
<g>
	<g>
		<path class="st0" d="M28.48,5.05h-0.42V4.76c0-0.28,0.11-0.5,0.42-0.54v0.16c-0.16,0.05-0.19,0.13-0.2,0.29h0.2V5.05z"/>
		<path class="st0" d="M28.94,4.22h1.59v0.3h-1.19V5h1.12v0.3h-1.12v0.83h-0.4V4.22z"/>
		<path class="st0" d="M31.5,4.17c0.29,0,0.88,0.05,0.93,0.61H32c-0.01-0.15-0.15-0.31-0.48-0.31c-0.27,0-0.44,0.08-0.44,0.26
			c0,0.45,1.42,0.02,1.42,0.83c0,0.49-0.51,0.62-0.92,0.62c-0.69,0-0.96-0.27-0.97-0.67h0.43c0.01,0.25,0.22,0.37,0.55,0.37
			c0.24,0,0.47-0.07,0.47-0.28c0-0.47-1.4-0.06-1.4-0.84C30.66,4.34,31.04,4.17,31.5,4.17z"/>
		<path class="st0" d="M32.74,4.22h1.17c0.47,0,0.62,0.29,0.62,0.59c0,0.29-0.18,0.59-0.61,0.59h-0.78v0.73h-0.4V4.22z M33.14,5.1
			h0.64c0.23,0,0.35-0.06,0.35-0.29c0-0.23-0.17-0.29-0.32-0.29h-0.67V5.1z"/>
		<path class="st0" d="M35.93,4.28h1.35v0.3H36.2L36.12,5c0.18-0.1,0.36-0.11,0.49-0.11c0.43,0,0.79,0.19,0.79,0.6
			c0,0.4-0.28,0.68-0.86,0.68c-0.5,0-0.82-0.2-0.85-0.57h0.4c0.05,0.22,0.25,0.28,0.45,0.28C36.76,5.89,37,5.8,37,5.53
			c0-0.26-0.21-0.38-0.45-0.38c-0.22,0-0.33,0.06-0.42,0.15l-0.37-0.01L35.93,4.28z"/>
		<path class="st0" d="M37.65,6.13c0-0.47,0.35-0.7,0.74-0.86c0.39-0.17,0.54-0.23,0.54-0.44c0-0.23-0.23-0.31-0.38-0.31
			c-0.29,0-0.44,0.15-0.46,0.4h-0.4c0-0.46,0.36-0.68,0.81-0.68c0.43,0,0.83,0.17,0.83,0.62c0,0.31-0.26,0.46-0.54,0.58
			c-0.29,0.11-0.6,0.19-0.69,0.39h1.24v0.3H37.65z"/>
		<path class="st0" d="M40.02,5.54c0.02,0.27,0.22,0.35,0.47,0.35c0.26,0,0.46-0.11,0.46-0.31c0-0.12-0.06-0.29-0.43-0.29h-0.22
			V5.02h0.25c0.21,0,0.34-0.07,0.34-0.23c0-0.14-0.11-0.27-0.41-0.27c-0.29,0-0.39,0.16-0.4,0.32h-0.38c0.04-0.45,0.42-0.6,0.83-0.6
			c0.58,0,0.77,0.27,0.77,0.54c0,0.12-0.07,0.28-0.29,0.34v0.01c0.23,0.05,0.37,0.22,0.37,0.42c0,0.21-0.1,0.62-0.88,0.62
			c-0.4,0-0.85-0.13-0.85-0.64H40.02z"/>
		<path class="st0" d="M41.59,5.41l1.01-1.16h0.42v1.19h0.34v0.28h-0.34v0.41h-0.35V5.72h-1.08V5.41z M42.67,4.59L42.67,4.59
			l-0.71,0.85h0.71V4.59z"/>
		<path class="st0" d="M44.86,4.75c-0.03-0.13-0.14-0.22-0.37-0.22c-0.33,0-0.52,0.24-0.53,0.59c0.16-0.16,0.32-0.21,0.58-0.21
			c0.56,0,0.76,0.3,0.76,0.61c0,0.32-0.25,0.65-0.85,0.65c-0.67,0-0.87-0.42-0.87-0.97c0-0.35,0.14-0.96,0.87-0.96
			c0.5,0,0.76,0.19,0.81,0.51H44.86z M44.46,5.89c0.33,0,0.45-0.17,0.45-0.35c0-0.18-0.12-0.35-0.45-0.35
			c-0.33,0-0.45,0.17-0.45,0.35C44.01,5.72,44.13,5.89,44.46,5.89z"/>
		<path class="st0" d="M45.7,4.22h0.42v0.29c0,0.28-0.11,0.5-0.42,0.54V4.89c0.16-0.05,0.19-0.13,0.2-0.29h-0.2V4.22z"/>
	</g>
</g>
<g>
	<path class="st1" d="M21.71,48.5l0.27,1.44c0.04,0.24,0.05,0.49,0.01,0.73l-0.48,3.24h0.8c0,0,0.74-3.3,1.33-4.23
		c0.58-0.91,3.17-2.93,3.17-2.93l-1.71-0.85l-1.88,1.64c-0.29,0.26-0.71,0.09-1.07,0.24C21.94,47.84,21.71,48.5,21.71,48.5"/>
</g>
<circle class="st0" cx="37.5" cy="50.42" r="3.2"/>
<g>
	<g>
		<path class="st2" d="M25.11,48.81c-0.02,0-0.04-0.01-0.05-0.02c-0.03-0.02-0.04-0.06-0.03-0.09l1.02-2.85
			c-0.02-0.03-0.05-0.07-0.06-0.14c-0.07-0.33,0.13-1.11,1.53-2.9c1.84-2.37,3.95-5.16,4.42-5.78c-1.8-0.07-16.4-0.69-17.34-1.1
			c-0.24-0.11-0.52-0.13-0.79-0.14c-0.39-0.03-0.8-0.06-1.05-0.37c-0.26-0.34-0.29-0.95-0.09-1.94c0.19-0.94-0.32-2.07-0.33-2.08
			c-0.01-0.03-0.01-0.06,0.01-0.08c0.02-0.02,0.04-0.04,0.07-0.04c0.05,0,5.4,0.12,10.99,0.41c7.5,0.39,11.83,0.9,12.86,1.5
			c1.21,0.71,1.52,1.32,1.67,1.81c0.11,0.37,0.26,1.13,0.06,2.09c-0.21,0.97-0.72,1.86-1.51,2.66c-4.31,4.31-11.25,9-11.32,9.05
			C25.14,48.81,25.12,48.81,25.11,48.81z M26.18,45.76c0.02,0.01,0.03,0.02,0.04,0.04c0.01,0.02,0.01,0.04,0,0.06l-0.95,2.66
			c1.2-0.82,7.21-5.01,11.08-8.88c0.78-0.78,1.27-1.64,1.47-2.58c0.2-0.92,0.05-1.65-0.06-2.01c-0.14-0.47-0.44-1.04-1.6-1.72
			c-2.31-1.36-21.85-1.84-23.64-1.89c0.13,0.33,0.45,1.24,0.29,2.06c-0.18,0.92-0.16,1.51,0.06,1.8c0.2,0.26,0.53,0.28,0.92,0.31
			c0.29,0.02,0.58,0.04,0.85,0.16c0.95,0.42,17.28,1.09,17.44,1.1c0.03,0,0.06,0.02,0.07,0.05c0.01,0.03,0.01,0.06-0.01,0.09
			c-0.02,0.03-2.44,3.24-4.52,5.91c-0.48,0.62-1.59,2.12-1.5,2.74C26.15,45.72,26.17,45.75,26.18,45.76z M26.18,45.76L26.18,45.76
			L26.18,45.76z"/>
	</g>
	<g>
		<path class="st1" d="M27.29,14.17l-0.99-1.73c0,0-0.21-1.1-0.6-1.46c0.08,1.06-0.59,2.37-1.19,3.09c-0.83,1-2.01,1.68-3.27,2.03
			c-0.2,0.86-0.91,3.73-0.91,3.73l1.86,2.68c0,0,1.73-1.86,1.77-2.72c0.04-0.86,0.43-3.37,0.43-3.37s0.6,0.09,1.12,0
			c0.52-0.09,1.08-0.17,1.25-0.48c0.17-0.3-0.09-1.51-0.09-1.51L27.29,14.17z"/>
	</g>
	<g>
		<path class="st3" d="M12.32,31.33c0,0-0.63,1.91-0.75,2.9c-0.36,2.88,0.94,3.47,1.88,3.83c0.94,0.37,16.49,0,16.49,0
			s-2.06,2.35-3.81,5.25c-1.73,2.87-1.97,3.27-1.97,3.27l0.97,2.13c0,0,7.67-6.47,9.21-8.49c2.12-2.78,1.97-3.87,1.52-4.78
			c-0.36-0.74-0.96-0.85-2.27-1.3C31.47,33.41,12.32,31.33,12.32,31.33z"/>
	</g>
	<g>
		<path class="st4" d="M26.28,14.96l0.82-0.13L27,15.14c-0.11,0.13-0.31,0.16-0.44,0.05L26.28,14.96z"/>
	</g>
	<g>
		<path class="st5" d="M26.77,15.94c0.01-0.02,0.02-0.03,0.02-0.05c-0.53-0.01-2.92-0.13-2.75-0.6c-0.5,1.42-0.53,3-0.08,4.43
			c0.06-0.92,0.43-3.3,0.43-3.3s0.6,0.09,1.12,0C26.04,16.33,26.6,16.24,26.77,15.94z"/>
	</g>
	<g>
		<path class="st1" d="M21.39,27.47c-0.1,0.2-1.5,4.73-1.5,4.73l-7.5-0.86l0.67-1.07L21.39,27.47z"/>
	</g>
	<g>
		<g>
			<path class="st0" d="M25.39,24.44l-4.2,6.3h-8.8c0,0,1.7-5.17,3.8-8.24c2.1-3.07,4.8-4.17,5.5-4.17c0.7,0,1.9,0.33,2.7,1.47
				C25.19,20.94,25.39,24.44,25.39,24.44z"/>
		</g>
	</g>
	<g>
		<g>
			<path class="st1" d="M40.86,29.61c-0.88-0.46-2.66-1.21-3.63-1.43l-2.5,0.8l-7.62,0.53l-0.98-2.51l-3.07,2.51
				c0,0,0.75,2.23,1.34,2.71c0.46,0.37,1.13,0.77,2.3,0.5c0.42-0.1,8.37-2.87,8.37-2.87c0.58,0.45,1.59-0.14,1.99-0.41
				c0.38,0.31,0.74,0.48,1.28,0.78c0.2,0.13,0.93,0.23,1,0.17c-0.2-0.18-0.42-0.35-0.63-0.52l1.2,0.45
				c0.21,0.08,0.45,0.01,0.59-0.17l-0.81-0.49c0.17,0.05,0.34,0.09,0.51,0.12C40.4,29.81,40.86,29.78,40.86,29.61z"/>
			<path class="st1" d="M42.15,29.89l-3.24-1.97c-0.49-0.29-1.08-0.36-1.63-0.19l-1.67,0.17l-7.56,0.53l-0.57-1.46l-0.16,0.06
				l0.61,1.57l7.69-0.54l1.69-0.17l0.01,0c0.5-0.16,1.05-0.1,1.5,0.17l3.07,1.86c-0.32,0.04-0.62-0.07-0.86-0.18l-0.07,0.15
				c0.22,0.1,0.49,0.2,0.79,0.2c0.13,0,0.26-0.02,0.39-0.06l-0.03-0.08L42.15,29.89z"/>
		</g>
		<g>
			<g>
				<path class="st5" d="M27.23,31.75c-1.35,0.17-2.07-0.35-2.54-0.82c-0.33-0.33-0.66-1.25-0.89-2.03l-0.74,0.61
					c0,0,0.75,2.23,1.34,2.71c0.46,0.37,1.13,0.77,2.3,0.5c0.35-0.08,5.83-1.98,7.73-2.64C31.63,30.73,27.55,31.71,27.23,31.75z"/>
			</g>
		</g>
	</g>
	<g>
		<path class="st2" d="M23.9,30.75C23.9,30.75,23.9,30.75,23.9,30.75c-0.14,0-0.26-0.06-0.33-0.18c-0.5-0.74-3.02-5.17-3.78-7.73
			c-0.21-0.7-0.38-2.48,0.45-3.27c0.45-0.43,1.13-0.49,2-0.17c0.45,0.16,0.88,0.46,1.28,0.89c0.42,0.44,0.69,0.89,0.8,1.12
			c0.35,0.66,2.25,6.51,2.33,6.76c0.01,0.03,0,0.05-0.01,0.08C26.56,28.34,24.76,30.75,23.9,30.75z M19.95,22.8
			c0.72,2.43,3.19,6.85,3.76,7.68c0.05,0.07,0.11,0.1,0.19,0.1c0,0,0.01,0,0.01,0c0.63,0,2.05-1.7,2.58-2.41
			c-0.17-0.54-1.98-6.07-2.3-6.69c-0.58-1.1-1.41-1.72-2-1.93c-0.81-0.29-1.42-0.24-1.83,0.14C19.63,20.39,19.73,22.06,19.95,22.8z"
			/>
	</g>
	<g>
		<path class="st2" d="M12.48,36.89c-0.03,0-0.06-0.02-0.08-0.05c-0.02-0.04,0-0.09,0.04-0.11c0.92-0.44,1.45-1.41,1.95-2.45
			l0.42-0.87c-0.91,0.15-1.86,0.11-2.75-0.12c-0.04-0.01-0.07-0.06-0.06-0.1c0.01-0.04,0.06-0.07,0.1-0.06
			c0.92,0.24,1.91,0.27,2.84,0.09c0.03-0.01,0.06,0.01,0.08,0.03c0.02,0.02,0.02,0.06,0.01,0.09l-0.49,1.01
			c-0.52,1.07-1.06,2.07-2.03,2.53C12.5,36.89,12.49,36.89,12.48,36.89z"/>
	</g>
	<g>
		<path class="st2" d="M26.55,26.98c-0.02,0-0.05-0.01-0.06-0.03c-0.03-0.04-0.02-0.09,0.01-0.12l0.95-0.79
			c-0.94-1.81-1.89-3.63-2.83-5.44c-0.02-0.04-0.01-0.09,0.04-0.11c0.04-0.02,0.09-0.01,0.11,0.04c0.95,1.83,1.91,3.67,2.86,5.5
			c0.02,0.03,0.01,0.08-0.02,0.1l-1,0.84C26.58,26.97,26.57,26.98,26.55,26.98z"/>
	</g>
</g>
<g>
	<g>
		<path class="st0" d="M22.49,53.1c-0.09,0.35-0.26,0.74-0.61,0.82c-0.04,0.01-0.09,0.01-0.13,0c-0.08-0.04-0.1-0.15-0.11-0.24
			c-0.12-1.28-0.23-2.56-0.35-3.84c-0.03-0.36-0.06-0.72,0-1.07c0.06-0.33,0.46-1.19,0.94-1c0.36,0.14,0.22,0.85,0.26,1.17
			C22.68,50.38,22.88,51.65,22.49,53.1z"/>
	</g>
</g>
<g>
	<g>
		<path d="M18.61,16.81c-0.57,0.92-1.22,1.83-2.13,2.41c-0.91,0.58-2.14,0.78-3.08,0.24c-1.3-0.75-1.65-2.6-2.96-3.31
			c-1.09-0.59-2.45-0.2-3.54,0.38c-0.73,0.39-1.49,0.87-2.3,0.75c-0.46-0.07-0.87-0.33-1.21-0.65c-1.15-1.11-1.41-2.98-0.74-4.43
			c0.68-1.45,2.18-2.43,3.77-2.62c1.59-0.19,3.22,0.36,4.47,1.36c0.6,0.47,1.11,1.04,1.67,1.56c0.72,0.67,1.77,1.31,2.64,0.84
			c0.49-0.26,0.76-0.8,1.06-1.28c0.56-0.88,1.4-1.66,2.43-1.83c1.31-0.22,2.6,0.7,2.11,2.01C20.21,13.83,19.49,15.36,18.61,16.81z"
			/>
	</g>
	<g>
		<path d="M24.51,14.07c0.6-0.72,1.5-1.88,1.42-2.94c0,0-0.67-1.77-2.77-1.6c-1.35,0.11-2.52,2.04-2.52,2.04s0,0,0.09,1.21
			s0.65,2.68,0.56,3.11c-0.01,0.04-0.02,0.11-0.04,0.2C22.5,15.75,23.68,15.07,24.51,14.07z"/>
	</g>
	<g>
		<path class="st0" d="M13.75,14.99c-0.05,0-0.1,0-0.15,0c-0.41-0.03-0.85-0.16-1.33-0.41c-0.57-0.29-1.1-0.68-1.6-1.06
			c-0.24-0.17-0.48-0.36-0.72-0.52c-0.95-0.65-1.74-0.96-2.5-0.97c-0.06,0-0.12,0-0.19,0C6.32,12,4.9,11.96,3.91,14.16l-0.24-0.11
			c1.07-2.36,2.65-2.32,3.6-2.29c0.06,0,0.13,0,0.19,0c0.81,0.01,1.65,0.33,2.64,1.02c0.25,0.17,0.49,0.35,0.73,0.53
			c0.5,0.37,1.01,0.75,1.56,1.03c0.45,0.23,0.85,0.35,1.23,0.38c0.38,0.02,0.78-0.05,1.18-0.22c0.51-0.21,0.99-0.92,1.5-1.67
			c0.71-1.06,1.45-2.15,2.5-2.26c0.62-0.07,1.26,0.22,1.96,0.88l-0.18,0.19c-0.64-0.6-1.21-0.86-1.75-0.8
			c-0.93,0.1-1.63,1.14-2.31,2.15c-0.53,0.78-1.03,1.52-1.62,1.77C14.51,14.91,14.12,14.99,13.75,14.99z"/>
	</g>
	<g>
		<path class="st0" d="M13.74,17.88c-0.15,0-0.29-0.02-0.43-0.05c-0.83-0.19-1.37-0.87-1.89-1.53c-0.15-0.19-0.31-0.39-0.47-0.57
			c-0.11-0.13-0.23-0.26-0.35-0.41c-0.67-0.78-1.5-1.75-2.36-1.88c-0.78-0.12-2.25-0.34-3.76,2.83l-0.24-0.12
			c0.66-1.38,1.36-2.26,2.14-2.7c0.7-0.39,1.36-0.36,1.9-0.28c0.97,0.15,1.83,1.16,2.53,1.97c0.12,0.14,0.24,0.28,0.35,0.4
			c0.17,0.19,0.33,0.39,0.48,0.58c0.49,0.62,1,1.27,1.74,1.44c0.57,0.13,1.49-0.04,2.22-0.96c0.49-0.62,0.77-1.4,1.04-2.15
			c0.03-0.08,0.06-0.16,0.08-0.24c0.29-0.81,0.67-1.73,1.37-2.37c0.67-0.61,1.79-0.95,2.64-0.43l-0.14,0.23
			c-0.56-0.34-1.54-0.32-2.32,0.4c-0.66,0.6-1.01,1.48-1.29,2.26c-0.03,0.08-0.06,0.16-0.08,0.24c-0.28,0.77-0.56,1.57-1.08,2.23
			C15.24,17.47,14.47,17.88,13.74,17.88z"/>
	</g>
</g>
<g>
	<path class="st6" d="M45.96,31.88H35.83c-0.37,0-0.67-0.3-0.67-0.67c0-0.37,0.3-0.67,0.67-0.67h9.63l2.3-8.18
		c0.1-0.35,0.47-0.56,0.82-0.46c0.35,0.1,0.56,0.47,0.46,0.82l-2.43,8.67C46.52,31.68,46.26,31.88,45.96,31.88z"/>
</g>
<g>
	<path class="st7" d="M50.91,2.38"/>
</g>
<g>
	<path class="st4" d="M39.55,10.21c0,0-0.01,0-0.01,0l-2.99-0.38c-0.05-0.01-0.09-0.06-0.09-0.11c0.01-0.05,0.06-0.09,0.11-0.09
		l2.99,0.38c0.05,0.01,0.09,0.06,0.09,0.11C39.64,10.18,39.6,10.21,39.55,10.21z"/>
</g>
<g>
	<path class="st8" d="M40.86,10.28"/>
</g>
<g>
	<path class="st4" d="M41.34,10.44c0,0-0.01,0-0.01,0l-1.25-0.16c-0.05-0.01-0.09-0.06-0.09-0.11c0.01-0.05,0.06-0.09,0.11-0.09
		l1.25,0.16c0.05,0.01,0.09,0.06,0.09,0.11C41.44,10.4,41.39,10.44,41.34,10.44z"/>
</g>
<g>
	<path class="st9" d="M48.43,9"/>
</g>
<g>
	<g>
		<path class="st0" d="M25.2,2.39C25.2,2.39,25.2,2.39,25.2,2.39c-0.06,0-0.1-0.05-0.1-0.11c0.07-1.2,1.11-2.12,2.31-2.05l21.15-0.1
			c0,0,0,0,0,0c0.06,0,0.1,0.04,0.1,0.1c0,0.06-0.04,0.1-0.1,0.1l-21.16,0.1c0,0,0,0-0.01,0c-0.53-0.03-1.04,0.15-1.44,0.5
			c-0.4,0.35-0.64,0.84-0.67,1.37C25.3,2.35,25.25,2.39,25.2,2.39z"/>
	</g>
</g>
<g>
	<path class="st8" d="M24.24,2.06"/>
</g>
<g>
	<path class="st8" d="M23.98,6.31"/>
</g>
<g>
	<g>
		<path class="st0" d="M31.76,9.47c0,0-0.01,0-0.01,0l-4.85-0.62c-1.2-0.07-2.12-1.11-2.05-2.31c0-0.06,0.05-0.1,0.11-0.09
			c0.06,0,0.1,0.05,0.09,0.11c-0.07,1.09,0.77,2.04,1.86,2.1c0,0,0,0,0.01,0l4.86,0.62c0.05,0.01,0.09,0.06,0.09,0.11
			C31.85,9.43,31.81,9.47,31.76,9.47z"/>
	</g>
</g>
<g>
	<g>
		<path class="st0" d="M28.63,14.8c-0.01,0-0.03,0-0.04,0c-0.26-0.02-0.45-0.26-0.43-0.52c0.01-0.13,0.07-0.24,0.17-0.32
			c0.1-0.08,0.22-0.12,0.35-0.11l0,0c0.13,0.01,0.24,0.07,0.32,0.17c0.08,0.1,0.12,0.22,0.11,0.35
			C29.08,14.61,28.87,14.8,28.63,14.8z M28.63,14.04c-0.06,0-0.13,0.02-0.18,0.06c-0.06,0.05-0.09,0.11-0.1,0.19
			c-0.01,0.15,0.1,0.29,0.25,0.3c0.15,0.01,0.29-0.1,0.3-0.25c0.01-0.07-0.02-0.15-0.06-0.2c-0.05-0.06-0.11-0.09-0.19-0.1l0,0
			C28.65,14.04,28.64,14.04,28.63,14.04z"/>
	</g>
</g>
<g>
	<g>
		<path class="st0" d="M31.12,13.99c-0.02,0-0.04,0-0.06,0c-0.61-0.03-1.08-0.56-1.05-1.18c0.02-0.3,0.15-0.57,0.37-0.77
			c0.22-0.2,0.51-0.3,0.8-0.28l0,0c0.3,0.02,0.57,0.15,0.77,0.37c0.2,0.22,0.3,0.51,0.28,0.81C32.2,13.53,31.71,13.99,31.12,13.99z
			 M31.12,11.96c-0.22,0-0.44,0.08-0.61,0.23c-0.18,0.16-0.29,0.39-0.3,0.63c-0.03,0.51,0.36,0.94,0.86,0.96c0.02,0,0.03,0,0.05,0
			c0.48,0,0.88-0.38,0.91-0.87c0.01-0.24-0.07-0.48-0.23-0.66c-0.16-0.18-0.39-0.29-0.63-0.3l0,0
			C31.16,11.96,31.14,11.96,31.12,11.96z"/>
	</g>
</g>
<g>
	<g>
		<path class="st0" d="M34.01,11.96c-0.09,0-0.19-0.01-0.28-0.02c-0.44-0.07-0.83-0.32-1.09-0.68h0c-0.26-0.37-0.36-0.81-0.28-1.25
			c0.08-0.44,0.32-0.83,0.69-1.09c0.37-0.26,0.81-0.36,1.26-0.29c0.44,0.07,0.83,0.32,1.09,0.68c0.53,0.76,0.35,1.81-0.41,2.34
			C34.69,11.86,34.36,11.96,34.01,11.96z M34.02,8.8c-0.31,0-0.6,0.09-0.86,0.27c-0.32,0.23-0.54,0.57-0.61,0.96
			c-0.07,0.39,0.02,0.78,0.25,1.1h0c0.23,0.32,0.57,0.54,0.96,0.6c0.39,0.07,0.78-0.02,1.11-0.25c0.67-0.47,0.83-1.4,0.37-2.06
			C35,9.1,34.66,8.89,34.27,8.82C34.19,8.81,34.11,8.8,34.02,8.8z"/>
	</g>
</g>
<g>
	<g>
		<path class="st10" d="M58.67,5.81L60,4.42L58.17,4.2l-0.89-2.85c-0.32-1.03-1.37-1.59-2.34-1.25l-6.29,2.2
			c-0.97,0.34-1.5,1.45-1.18,2.48l1.87,6.01c0.32,1.03,1.37,1.59,2.34,1.25l6.29-2.2c0.97-0.34,1.5-1.45,1.18-2.48L58.67,5.81z"/>
	</g>
	<g>
		
			<rect x="51.78" y="1.58" transform="matrix(0.9438 -0.3305 0.3305 0.9438 2.4253 17.5949)" class="st11" width="2.34" height="0.17"/>
	</g>
	<g>
		<path class="st11" d="M49.84,9.18c-0.04,0-0.07-0.02-0.08-0.06L48.57,5.3c-0.34-1.09,0.22-2.26,1.25-2.62l1.06-0.37
			c0.04-0.02,0.09,0.01,0.11,0.05C51,2.4,50.98,2.45,50.93,2.46l-1.06,0.37c-0.94,0.33-1.46,1.41-1.14,2.42l1.19,3.83
			c0.01,0.04-0.01,0.09-0.05,0.1C49.86,9.18,49.85,9.18,49.84,9.18z"/>
	</g>
	<g>
		<path class="st11" d="M54.3,6.77l0.19,0.59c0.08,0.25-0.05,0.5-0.3,0.58c-0.23,0.08-0.5-0.05-0.58-0.3l-0.3-0.94
			c0-0.01,0.01-0.01,0-0.02C53.3,6.67,53.3,6.67,53.3,6.67c-0.08-0.23,0.07-0.51,0.3-0.58c0.57-0.18,0.88-0.78,0.7-1.34
			c-0.18-0.57-0.78-0.86-1.35-0.68c-0.37,0.12-0.63,0.42-0.71,0.77c-0.06,0.26-0.3,0.42-0.56,0.36c-0.25-0.06-0.4-0.3-0.35-0.55
			c0.14-0.66,0.64-1.24,1.33-1.46c1.04-0.34,2.17,0.24,2.51,1.28C55.46,5.35,55.08,6.3,54.3,6.77z M54.94,8.74l0.05,0.16
			c0.08,0.25-0.05,0.5-0.3,0.58c-0.23,0.08-0.5-0.05-0.58-0.3l-0.05-0.16c-0.08-0.24,0.07-0.51,0.3-0.58
			C54.61,8.36,54.86,8.5,54.94,8.74z"/>
	</g>
</g>
<g>
	<path class="st12" d="M44.2,50.33"/>
</g>
<g>
	<path class="st12" d="M43.91,48.73"/>
</g>
<g>
	<path class="st13" d="M11.59,58.9"/>
</g>
<g>
	<path class="st3" d="M22.87,5.08c-0.05,0-0.08-0.04-0.08-0.08c0-0.05,0.04-0.08,0.08-0.08l1.26-0.01c0,0,0,0,0,0
		c0.05,0,0.08,0.04,0.08,0.08c0,0.05-0.04,0.08-0.08,0.08L22.87,5.08C22.87,5.08,22.87,5.08,22.87,5.08z"/>
</g>
<g>
	<path class="st14" d="M22.09,5.01"/>
</g>
<g>
	<g>
		<path class="st2" d="M52.69,58.98h-8.23c-0.05,0-0.08-0.04-0.08-0.08c0-0.05,0.04-0.08,0.08-0.08h8.23c0.05,0,0.08,0.04,0.08,0.08
			C52.77,58.95,52.73,58.98,52.69,58.98z"/>
	</g>
	<g>
		<path class="st2" d="M42.19,58.98h-1.67c-0.05,0-0.08-0.04-0.08-0.08c0-0.05,0.04-0.08,0.08-0.08h1.67c0.05,0,0.08,0.04,0.08,0.08
			C42.28,58.95,42.24,58.98,42.19,58.98z"/>
	</g>
	<g>
		<path class="st2" d="M38.49,58.98H9.59c-0.05,0-0.08-0.04-0.08-0.08c0-0.05,0.04-0.08,0.08-0.08h28.9c0.05,0,0.08,0.04,0.08,0.08
			C38.58,58.95,38.54,58.98,38.49,58.98z"/>
	</g>
	<g>
		<g>
			<path class="st2" d="M52.89,58H0.17c-0.05,0-0.08-0.04-0.08-0.08c0-0.05,0.04-0.08,0.08-0.08h52.71c0.05,0,0.08,0.04,0.08,0.08
				C52.97,57.96,52.93,58,52.89,58z"/>
		</g>
		<g>
			<path class="st4" d="M54,52.95l0.67-3.03l2.72,2.17L54,52.95z M54.79,50.28l-0.53,2.4L56.95,52L54.79,50.28z"/>
		</g>
		<g>
			<path class="st4" d="M42.66,40.66l-2.73-2.18l2.81-1.3L42.66,40.66z M40.3,38.53l2.17,1.72l0.06-2.76L40.3,38.53z"/>
		</g>
		<g>
			<path class="st4" d="M4.88,51.66l-2.73-2.18l2.81-1.3L4.88,51.66z M2.52,49.53l2.17,1.72l0.06-2.76L2.52,49.53z"/>
		</g>
		<g>
			<path class="st3" d="M37.54,55.07c-0.45,0-0.9-0.06-1.33-0.19c-0.35-0.1-0.69-0.25-1-0.43c-1.03-0.59-1.81-1.53-2.17-2.66
				c-0.15-0.47-0.23-0.96-0.23-1.46c0-2.61,2.12-4.73,4.73-4.73c0.99,0,1.94,0.3,2.74,0.87c0.79,0.56,1.38,1.33,1.71,2.23
				l-0.16,0.06c-0.66-1.79-2.38-3-4.29-3c-2.52,0-4.57,2.05-4.57,4.57c0,0.48,0.07,0.95,0.22,1.41c0.35,1.09,1.1,2,2.09,2.57
				c0.31,0.17,0.63,0.31,0.97,0.41c0.42,0.12,0.85,0.18,1.29,0.18c2.52,0,4.57-2.05,4.57-4.57h0.17
				C42.28,52.94,40.15,55.07,37.54,55.07z"/>
		</g>
		<g>
			<path class="st13" d="M5.48,58.9"/>
		</g>
		<g>
			<path class="st2" d="M6.88,58.98h-5.1c-0.05,0-0.08-0.04-0.08-0.08c0-0.05,0.04-0.08,0.08-0.08h5.1c0.05,0,0.08,0.04,0.08,0.08
				C6.96,58.95,6.92,58.98,6.88,58.98z"/>
		</g>
		<g>
			<path class="st3" d="M9.19,50.65l-0.14-0.09l1.18-1.81c0.11-0.17,0.12-0.29,0.03-0.42l-0.85-1.25c-0.23-0.33-0.23-0.72,0-1.05
				L10.09,45c0.18-0.27,0.18-0.59,0-0.86L9.4,43.1l0.14-0.09l0.7,1.04c0.22,0.33,0.22,0.71,0,1.04l-0.69,1.02
				c-0.19,0.28-0.18,0.59,0,0.87l0.85,1.25c0.13,0.19,0.12,0.39-0.03,0.61L9.19,50.65z"/>
		</g>
		<g>
			<polygon class="st3" points="41.98,48.82 40.87,48.49 40.92,48.33 41.87,48.61 42.18,47.72 42.34,47.77 			"/>
		</g>
		<g>
			<path class="st4" d="M51.82,31.47c-0.03,0-0.07,0-0.1-0.01c-0.16-0.03-0.31-0.12-0.41-0.25c-0.1-0.14-0.14-0.3-0.11-0.47
				c0.06-0.34,0.38-0.58,0.72-0.52h0c0.34,0.05,0.57,0.38,0.52,0.72C52.39,31.25,52.12,31.47,51.82,31.47z M51.82,30.42
				c-0.2,0-0.39,0.15-0.42,0.36c-0.02,0.11,0.01,0.23,0.07,0.32c0.07,0.09,0.16,0.15,0.28,0.17c0.23,0.04,0.45-0.12,0.49-0.35
				c0.04-0.23-0.12-0.45-0.35-0.49h0C51.87,30.42,51.85,30.42,51.82,30.42z"/>
		</g>
		<g>
			<path class="st4" d="M51.82,33.33c-0.03,0-0.07,0-0.1-0.01c-0.16-0.03-0.31-0.12-0.41-0.25c-0.1-0.14-0.14-0.3-0.11-0.47
				c0.03-0.17,0.12-0.31,0.25-0.41c0.14-0.1,0.3-0.14,0.46-0.11c0.34,0.05,0.57,0.38,0.52,0.72c-0.03,0.17-0.12,0.31-0.25,0.41
				C52.08,33.29,51.95,33.33,51.82,33.33z M51.82,32.27c-0.09,0-0.17,0.03-0.25,0.08c-0.09,0.07-0.15,0.17-0.17,0.28
				c-0.02,0.11,0.01,0.23,0.07,0.32c0.07,0.09,0.16,0.15,0.28,0.17c0.11,0.02,0.22-0.01,0.32-0.08c0.09-0.07,0.15-0.17,0.17-0.28
				c0.04-0.23-0.12-0.45-0.35-0.49C51.87,32.28,51.84,32.27,51.82,32.27z"/>
		</g>
		<g>
			<path class="st4" d="M51.82,35.27c-0.03,0-0.07,0-0.1-0.01c-0.16-0.03-0.31-0.12-0.41-0.25c-0.1-0.14-0.14-0.3-0.11-0.47
				c0.03-0.17,0.12-0.31,0.25-0.41c0.14-0.1,0.3-0.14,0.46-0.11c0.34,0.05,0.57,0.38,0.52,0.72c-0.03,0.17-0.12,0.31-0.25,0.41
				C52.08,35.23,51.95,35.27,51.82,35.27z M51.82,34.22c-0.09,0-0.17,0.03-0.25,0.08c-0.09,0.07-0.15,0.17-0.17,0.28
				c-0.02,0.11,0.01,0.23,0.07,0.32c0.07,0.09,0.16,0.15,0.28,0.17c0.11,0.02,0.22-0.01,0.32-0.08c0.09-0.07,0.15-0.17,0.17-0.28
				c0.04-0.23-0.12-0.45-0.35-0.49C51.87,34.22,51.84,34.22,51.82,34.22z"/>
		</g>
		<g>
			<path class="st10" d="M50.08,40.71l-0.78-1.14c-0.17-0.26-0.18-0.55-0.01-0.81l0.52-0.79c0.13-0.2,0.13-0.43-0.01-0.62
				l-0.53-0.78c-0.18-0.26-0.18-0.55-0.01-0.81l0.51-0.78c0.13-0.2,0.13-0.43-0.01-0.63l-0.65-0.94c-0.1-0.15-0.1-0.31,0.02-0.48
				l0.88-1.38l0.14,0.09l-0.88,1.38c-0.1,0.15-0.06,0.23-0.02,0.3l0.65,0.94c0.18,0.25,0.18,0.56,0.01,0.82l-0.51,0.78
				c-0.13,0.2-0.13,0.43,0,0.63l0.53,0.78c0.17,0.26,0.18,0.55,0.01,0.81l-0.52,0.79c-0.13,0.2-0.13,0.43,0.01,0.62l0.78,1.14
				L50.08,40.71z"/>
		</g>
		<g>
			<path class="st10" d="M53.34,31.45l-0.14-0.09l0.88-1.38c0.1-0.15,0.06-0.23,0.02-0.3l-0.65-0.94c-0.18-0.25-0.18-0.56-0.01-0.82
				l0.51-0.78c0.13-0.2,0.13-0.43,0-0.63l-0.53-0.78c-0.17-0.26-0.18-0.55-0.01-0.81l0.52-0.79c0.13-0.2,0.13-0.43-0.01-0.62
				l-0.78-1.14l0.14-0.09l0.78,1.14c0.17,0.26,0.18,0.55,0.01,0.81l-0.52,0.79c-0.13,0.2-0.13,0.43,0.01,0.62l0.53,0.78
				c0.18,0.26,0.18,0.55,0.01,0.81l-0.51,0.78c-0.13,0.2-0.13,0.43,0.01,0.63l0.65,0.94c0.1,0.15,0.1,0.31-0.02,0.48L53.34,31.45z"
				/>
		</g>
		<g>
			
				<rect x="48.49" y="25.54" transform="matrix(6.243375e-03 -1 1 6.243375e-03 25.8871 77.2889)" class="st3" width="6.69" height="0.17"/>
		</g>
		<g>
			<path class="st3" d="M48.26,50.4h-6.07v-0.17h6.07c1.85,0,3.35-1.5,3.35-3.35V36.81h0.17v10.07C51.78,48.82,50.2,50.4,48.26,50.4
				z"/>
		</g>
		<g>
			<rect x="50.98" y="40.44" class="st3" width="0.17" height="5.23"/>
		</g>
		<g>
			<rect x="52.38" y="39.09" class="st3" width="0.17" height="3.12"/>
		</g>
		<g>
			<rect x="52.38" y="36.98" class="st3" width="0.17" height="0.69"/>
		</g>
		<g>
			<rect x="50.98" y="29.09" class="st3" width="0.17" height="0.86"/>
		</g>
		<g>
			
				<rect x="50.08" y="26.93" transform="matrix(6.242875e-03 -1 1 6.242875e-03 23.72 77.9011)" class="st3" width="1.96" height="0.17"/>
		</g>
		<g>
			<path class="st4" d="M12.25,5.67c-0.13,0-0.26-0.04-0.36-0.12c-0.14-0.1-0.23-0.24-0.25-0.41c-0.03-0.16,0.01-0.33,0.11-0.46
				c0.1-0.14,0.24-0.22,0.41-0.25c0.17-0.03,0.33,0.01,0.47,0.11c0.14,0.1,0.23,0.24,0.25,0.41l0,0c0.03,0.16-0.01,0.33-0.11,0.46
				c-0.1,0.14-0.24,0.22-0.41,0.25C12.32,5.66,12.28,5.67,12.25,5.67z M12.25,4.62c-0.02,0-0.05,0-0.07,0.01
				C12.07,4.64,11.97,4.7,11.9,4.8c-0.07,0.09-0.09,0.2-0.08,0.32c0.02,0.11,0.08,0.21,0.17,0.28c0.09,0.07,0.21,0.09,0.32,0.07
				c0.11-0.02,0.21-0.08,0.28-0.17c0.07-0.09,0.09-0.2,0.08-0.32l0,0c-0.02-0.11-0.08-0.21-0.17-0.28
				C12.43,4.65,12.34,4.62,12.25,4.62z"/>
		</g>
		<g>
			<path class="st4" d="M10.39,5.67c-0.3,0-0.57-0.22-0.62-0.52C9.75,4.98,9.79,4.81,9.88,4.68c0.1-0.14,0.24-0.22,0.41-0.25
				c0.17-0.03,0.33,0.01,0.47,0.11c0.14,0.1,0.23,0.24,0.25,0.41l0,0c0.05,0.34-0.18,0.66-0.52,0.72
				C10.46,5.66,10.42,5.67,10.39,5.67z M10.39,4.62c-0.02,0-0.05,0-0.07,0.01c-0.11,0.02-0.21,0.08-0.28,0.17
				C9.98,4.89,9.95,5,9.97,5.11c0.04,0.23,0.26,0.39,0.49,0.35c0.23-0.04,0.39-0.26,0.35-0.49c-0.02-0.11-0.08-0.21-0.17-0.28
				C10.57,4.65,10.48,4.62,10.39,4.62z"/>
		</g>
		<g>
			<path class="st4" d="M8.45,5.67c-0.3,0-0.57-0.22-0.62-0.52C7.78,4.8,8.01,4.48,8.35,4.43C8.69,4.37,9.02,4.6,9.07,4.94
				C9.13,5.28,8.89,5.6,8.55,5.66C8.52,5.66,8.48,5.67,8.45,5.67z M8.45,4.62c-0.02,0-0.05,0-0.07,0.01
				C8.15,4.66,7.99,4.88,8.03,5.11C8.07,5.34,8.29,5.5,8.52,5.46c0.23-0.04,0.39-0.26,0.35-0.49C8.84,4.77,8.66,4.62,8.45,4.62z"/>
		</g>
		<g>
			<path class="st10" d="M9.91,7.81c-0.08,0-0.15-0.02-0.22-0.07L8.75,7.09c-0.2-0.14-0.43-0.14-0.63-0.01L7.34,7.6
				C7.08,7.77,6.79,7.77,6.53,7.59L5.75,7.05c-0.2-0.13-0.42-0.14-0.62-0.01L4.33,7.57C4.07,7.74,3.78,7.74,3.52,7.56L2.38,6.78
				l0.09-0.14l1.14,0.78c0.2,0.13,0.42,0.14,0.62,0.01l0.79-0.52c0.26-0.17,0.55-0.17,0.81,0.01l0.78,0.53
				c0.2,0.14,0.43,0.14,0.63,0l0.78-0.51c0.26-0.17,0.56-0.17,0.82,0.01L9.79,7.6c0.06,0.04,0.15,0.08,0.3-0.02l1.38-0.88l0.09,0.14
				l-1.38,0.88C10.08,7.78,9.99,7.81,9.91,7.81z"/>
		</g>
		<g>
			<path class="st10" d="M20.72,3.72l-1.14-0.78c-0.2-0.13-0.42-0.14-0.62-0.01l-0.79,0.52c-0.26,0.17-0.55,0.17-0.81-0.01
				l-0.78-0.53c-0.2-0.14-0.43-0.14-0.63,0l-0.78,0.51c-0.26,0.17-0.56,0.17-0.82-0.01L13.4,2.76c-0.06-0.04-0.15-0.08-0.3,0.02
				l-1.38,0.88l-0.09-0.14l1.38-0.88c0.18-0.11,0.33-0.12,0.48-0.02l0.94,0.65c0.2,0.14,0.43,0.14,0.63,0.01l0.78-0.51
				c0.26-0.17,0.56-0.17,0.81,0.01l0.78,0.53c0.2,0.13,0.42,0.14,0.62,0.01l0.79-0.52c0.26-0.17,0.55-0.17,0.81,0.01l1.14,0.78
				L20.72,3.72z"/>
		</g>
		<g>
			<path class="st14" d="M21.53,4.99"/>
		</g>
		<g>
			<path class="st3" d="M14.13,5.14c-0.05,0-0.08-0.04-0.08-0.08c0-0.05,0.04-0.08,0.08-0.08l5.96-0.05c0.05,0,0.08,0.04,0.08,0.08
				c0,0.05-0.04,0.08-0.08,0.08L14.13,5.14C14.13,5.14,14.13,5.14,14.13,5.14z"/>
		</g>
		<g>
			<path class="st15" d="M15.3,5.18"/>
		</g>
		<g>
			<path class="st15" d="M6.28,5.17"/>
		</g>
		<g>
			<path class="st3" d="M0.88,4.49C0.84,4.49,0.8,4.45,0.8,4.4c0-0.05,0.04-0.08,0.08-0.08l3.12,0c0.05,0,0.08,0.04,0.08,0.08
				c0,0.05-0.04,0.08-0.08,0.08L0.88,4.49z"/>
		</g>
		<g>
			<path class="st15" d="M4.01,4.4"/>
		</g>
		<g>
			<path class="st15" d="M5.43,4.4"/>
		</g>
		<g>
			<path class="st3" d="M5.43,4.49c-0.05,0-0.08-0.04-0.08-0.08c0-0.05,0.04-0.08,0.08-0.08l0.69,0h0c0.05,0,0.08,0.04,0.08,0.08
				c0,0.05-0.04,0.08-0.08,0.08L5.43,4.49L5.43,4.49z"/>
		</g>
		<g>
			<path class="st3" d="M13.15,5.88c-0.05,0-0.08-0.04-0.08-0.08c0-0.05,0.04-0.08,0.08-0.08l0.86,0h0c0.05,0,0.08,0.04,0.08,0.08
				c0,0.05-0.04,0.08-0.08,0.08L13.15,5.88L13.15,5.88z"/>
		</g>
		<g>
			<path class="st15" d="M16.43,5.81"/>
		</g>
		<g>
			<path class="st3" d="M15.1,5.9c-0.05,0-0.08-0.04-0.08-0.08c0-0.05,0.04-0.08,0.08-0.08l1.96-0.01c0,0,0,0,0,0
				c0.05,0,0.08,0.04,0.08,0.08c0,0.05-0.04,0.08-0.08,0.08L15.1,5.9C15.1,5.9,15.1,5.9,15.1,5.9z"/>
		</g>
	</g>
</g>
<g>
	<g>
		<path class="st6" d="M15.49,58.38c-0.77,0-1.49-0.47-1.77-1.23c-0.36-0.98,0.14-2.07,1.12-2.43c0.47-0.18,0.99-0.16,1.45,0.05
			c0.46,0.21,0.81,0.59,0.99,1.06c0.36,0.98-0.14,2.07-1.12,2.43C15.93,58.34,15.71,58.38,15.49,58.38z M15.5,55.94
			c-0.07,0-0.13,0.01-0.2,0.04c-0.29,0.11-0.44,0.43-0.33,0.72c0.11,0.29,0.43,0.43,0.72,0.32c0.29-0.11,0.44-0.43,0.33-0.72
			c-0.05-0.14-0.15-0.25-0.29-0.31C15.66,55.95,15.58,55.94,15.5,55.94z"/>
	</g>
	<g>
		<path class="st6" d="M23.83,58.38c-0.77,0-1.49-0.47-1.77-1.23c-0.36-0.98,0.14-2.07,1.12-2.43c0.47-0.18,0.99-0.16,1.45,0.05
			c0.46,0.21,0.81,0.59,0.99,1.06c0.36,0.98-0.14,2.07-1.12,2.43C24.27,58.34,24.05,58.38,23.83,58.38z M23.84,55.94
			c-0.07,0-0.13,0.01-0.2,0.04c-0.29,0.11-0.44,0.43-0.33,0.72c0.11,0.29,0.43,0.43,0.72,0.32c0.29-0.11,0.44-0.43,0.33-0.72
			c-0.05-0.14-0.15-0.25-0.29-0.31C23.99,55.95,23.92,55.94,23.84,55.94z"/>
	</g>
	<g>
		<path class="st6" d="M19.71,55.33c-0.37,0-0.67-0.3-0.67-0.67V41.06l-3.28,1.46c-0.34,0.15-0.73,0-0.88-0.34
			c-0.15-0.34,0-0.73,0.34-0.88l4.22-1.88c0.21-0.09,0.45-0.07,0.63,0.05c0.19,0.12,0.3,0.33,0.3,0.56v14.64
			C20.37,55.03,20.07,55.33,19.71,55.33z"/>
	</g>
	<g>
		<path class="st6" d="M23.27,55.32h-7.14c-0.37,0-0.67-0.3-0.67-0.67s0.3-0.67,0.67-0.67h7.14c0.37,0,0.67,0.3,0.67,0.67
			S23.64,55.32,23.27,55.32z"/>
	</g>
	<g>
		<rect x="17.92" y="46.75" class="st11" width="3.6" height="7.17"/>
		<path class="st3" d="M21.52,54h-3.6c-0.05,0-0.08-0.04-0.08-0.08v-7.17c0-0.05,0.04-0.08,0.08-0.08h3.6
			c0.05,0,0.08,0.04,0.08,0.08v7.17C21.61,53.96,21.57,54,21.52,54z M18,53.83h3.43v-7H18V53.83z"/>
	</g>
	<g>
		<path class="st6" d="M27.29,40.01H14.24c-2.4,0-4.35-1.95-4.35-4.35V22.47c0-0.37,0.3-0.67,0.67-0.67c0.37,0,0.67,0.3,0.67,0.67
			v13.19c0,1.66,1.35,3.02,3.02,3.02h13.05c0.37,0,0.67,0.3,0.67,0.67S27.66,40.01,27.29,40.01z"/>
	</g>
</g>
<g>
	<g>
		<rect x="56.95" y="15.04" class="st3" width="0.17" height="1.79"/>
	</g>
	<g>
		<rect x="56.95" y="13.4" class="st3" width="0.17" height="1.04"/>
	</g>
	<g>
		<path class="st3" d="M57.05,12l-0.17,0c0-0.37-0.11-0.72-0.33-1.02l0.14-0.1C56.93,11.21,57.05,11.6,57.05,12z"/>
	</g>
	<g>
		<path class="st3" d="M55.1,19.78C55.1,19.78,55.1,19.78,55.1,19.78L55.1,19.78l-12.23-0.7l-5.06-0.24c-1.07,0-1.94-0.87-1.94-1.94
			l0-3.79c0-1.07,0.87-1.94,1.94-1.94l10.55-0.68l0.01,0.17l-10.55,0.68c0,0,0,0,0,0c-0.98,0-1.78,0.8-1.78,1.78l0,3.79
			c0,0.98,0.8,1.78,1.78,1.78l0,0l5.06,0.24l12.23,0.7c0.47,0,0.92-0.19,1.25-0.52c0.34-0.34,0.52-0.78,0.52-1.25l0.17,0
			C57.05,18.91,56.18,19.78,55.1,19.78z"/>
	</g>
	<g>
		<path class="st16" d="M37.79,11.87l15.5-1c0.92,0,1.67,0.75,1.67,1.67l0,5.23c0,0.92-0.75,1.67-1.67,1.67l-10.97-0.62l0,0l-2,2.49
			l0-2.58l-2.53-0.12c-0.92,0-1.67-0.75-1.67-1.67l0-3.4C36.13,12.62,36.88,11.87,37.79,11.87z"/>
	</g>
	<g>
		<g>
			<path class="st17" d="M48.53,15.06c0.03,0.53,0.49,0.94,1.02,0.91s0.94-0.49,0.91-1.02s-0.49-0.94-1.02-0.91
				C48.91,14.07,48.5,14.53,48.53,15.06z"/>
		</g>
		<g>
			<path class="st17" d="M44.93,15.1c0.03,0.53,0.49,0.94,1.02,0.91c0.53-0.03,0.94-0.49,0.91-1.02c-0.03-0.53-0.49-0.94-1.02-0.91
				C45.31,14.11,44.9,14.56,44.93,15.1z"/>
		</g>
		<g>
			<path class="st17" d="M41.8,14.45c-0.36,0.4-0.32,1.01,0.08,1.37s1.01,0.32,1.37-0.08s0.32-1.01-0.08-1.37
				C42.77,14.02,42.16,14.06,41.8,14.45z"/>
		</g>
	</g>
</g>
<g>
	<g>
		<path class="st11" d="M25.59,15.34c-0.68,0-1.36-0.22-1.91-0.61c-0.04-0.03-0.05-0.08-0.02-0.12c0.03-0.04,0.08-0.05,0.12-0.02
			c0.58,0.42,1.31,0.62,2.02,0.57c0.05,0,0.09,0.03,0.09,0.08c0,0.05-0.03,0.09-0.08,0.09C25.74,15.34,25.66,15.34,25.59,15.34z"/>
	</g>
	<g>
		<path class="st11" d="M26.12,15.27c0,0.17-0.13,0.3-0.3,0.3c-0.17,0-0.3-0.13-0.3-0.3s0.13-0.3,0.3-0.3
			C25.99,14.97,26.12,15.11,26.12,15.27z"/>
	</g>
	<g>
		<path class="st11" d="M23.1,13.18c-0.06-1.14-0.1-1.89,0.02-3.1c0-0.01,0-0.03,0-0.05c0.02-0.23,0.07-0.7,0.3-0.93
			c0.15-0.15,0.35-0.18,0.52-0.09c0.21,0.11,0.32,0.36,0.27,0.61l-0.26-0.05c0.03-0.15-0.05-0.28-0.14-0.33
			c-0.07-0.04-0.14-0.02-0.21,0.04c-0.16,0.16-0.21,0.6-0.22,0.77c0,0.02,0,0.04-0.01,0.05c-0.13,1.18-0.09,1.93-0.02,3.05
			L23.1,13.18z"/>
	</g>
	<g>
		<path class="st11" d="M24.68,13.87c0.08,0.63-0.36,1.21-0.99,1.29c-0.63,0.08-1.21-0.36-1.29-0.99s0.36-1.21,0.99-1.29
			C24.02,12.8,24.6,13.24,24.68,13.87z"/>
	</g>
	<g>
		<path class="st11" d="M23.98,13.71c0.06,0.43-0.25,0.83-0.68,0.88c-0.43,0.06-0.83-0.25-0.88-0.68c-0.06-0.43,0.25-0.83,0.68-0.88
			C23.53,12.97,23.93,13.28,23.98,13.71z"/>
	</g>
	<path class="st3" d="M23.29,14.51c-0.39,0.05-0.74-0.22-0.79-0.61c-0.05-0.39,0.22-0.74,0.61-0.79c0.05-0.01,0.08-0.05,0.07-0.09
		c-0.01-0.05-0.05-0.08-0.09-0.07c-0.48,0.06-0.81,0.5-0.75,0.98c0.06,0.44,0.43,0.76,0.86,0.76c0.04,0,0.08,0,0.11-0.01
		c0.05-0.01,0.08-0.05,0.07-0.09C23.38,14.54,23.34,14.5,23.29,14.51z"/>
</g>
</svg>
