<?xml version="1.0" encoding="utf-8"?>
<!-- Generator: Adobe Illustrator 26.4.1, SVG Export Plug-In . SVG Version: 6.00 Build 0)  -->
<svg version="1.1" id="Layer_1" xmlns="http://www.w3.org/2000/svg" xmlns:xlink="http://www.w3.org/1999/xlink" x="0px" y="0px"
	 viewBox="0 0 34.12 31.09" style="enable-background:new 0 0 34.12 31.09;" xml:space="preserve">
<style type="text/css">
	.st0{fill:#ED1C24;}
</style>
<g>
	<g>
		<path d="M13.43,15.79c0.78-0.95,1.53-1.89,2.3-2.8c3.89-4.57,8.12-8.77,13.03-12.26c0.7-0.5,1.39-0.8,2.27-0.72
			c0.75,0.07,1.52,0.01,2.27,0.02c0.36,0,0.64,0.15,0.77,0.51c0.12,0.34,0,0.62-0.25,0.85c-4.14,3.78-7.57,8.17-10.83,12.7
			c-3.08,4.29-5.94,8.73-8.61,13.29c-0.17,0.29-0.34,0.57-0.72,0.6c-0.34,0.03-0.58-0.14-0.75-0.42C10.14,23.03,7,18.75,3.9,14.45
			C3.51,13.91,3.53,13.63,4,13.16c0.57-0.56,1.13-1.12,1.7-1.68c0.52-0.51,0.76-0.54,1.35-0.13c2.01,1.4,4.02,2.8,6.03,4.21
			C13.19,15.64,13.31,15.71,13.43,15.79z"/>
		<path class="st0" d="M13.48,4.12c1.44,0.08,2.85,0.3,4.21,0.75c0.6,0.2,0.82,0.76,0.49,1.21c-0.22,0.29-0.52,0.36-0.99,0.21
			c-1.46-0.46-2.95-0.66-4.48-0.56c-3.17,0.22-5.85,1.49-8,3.81c-2.16,2.32-3.23,5.11-3.19,8.27c0.08,5.86,4.33,10.7,10.13,11.63
			c6.32,1.01,12.43-3.33,13.55-9.6c0.26-1.46,0.28-2.91,0-4.37c-0.02-0.11-0.03-0.23-0.04-0.34c-0.01-0.4,0.23-0.72,0.61-0.79
			c0.36-0.07,0.76,0.16,0.83,0.55c0.13,0.71,0.25,1.42,0.29,2.14c0.33,6.59-4.31,12.51-10.79,13.82c-7.31,1.47-14.53-3.4-15.87-10.7
			c-1.32-7.2,3.25-14.08,10.4-15.64C11.56,4.29,12.53,4.24,13.48,4.12z"/>
	</g>
</g>
</svg>
